<svg width="146" height="146" viewBox="0 0 146 146" fill="none" xmlns="http://www.w3.org/2000/svg">
<path d="M73 6.0835C59.7651 6.0835 46.8275 10.0081 35.8231 17.361C24.8187 24.7139 16.2418 35.1648 11.1771 47.3923C6.11231 59.6197 4.78713 73.0744 7.36913 86.055C9.95112 99.0355 16.3243 110.959 25.6828 120.317C35.0412 129.676 46.9647 136.049 59.9452 138.631C72.9258 141.213 86.3805 139.888 98.6079 134.823C110.835 129.758 121.286 121.181 128.639 110.177C135.992 99.1727 139.917 86.235 139.917 73.0002C139.917 55.2528 132.867 38.2322 120.317 25.6829C107.768 13.1336 90.7474 6.0835 73 6.0835ZM73 127.75C62.1715 127.75 51.5861 124.539 42.5825 118.523C33.5789 112.507 26.5615 103.956 22.4176 93.9521C18.2737 83.9478 17.1895 72.9394 19.302 62.319C21.4146 51.6985 26.629 41.943 34.2859 34.2861C41.9428 26.6291 51.6984 21.4147 62.3188 19.3022C72.9393 17.1896 83.9477 18.2739 93.9519 22.4178C103.956 26.5617 112.507 33.5791 118.523 42.5827C124.539 51.5863 127.75 62.1716 127.75 73.0002C127.75 87.5208 121.982 101.447 111.714 111.714C101.446 121.982 87.5206 127.75 73 127.75Z" fill="url(#paint0_linear_536_856)"/>
<path d="M93.0142 53.4726L66.9167 79.631L52.9859 65.6393C51.8403 64.4938 50.2867 63.8503 48.6667 63.8503C47.0467 63.8503 45.493 64.4938 44.3475 65.6393C43.202 66.7848 42.5585 68.3385 42.5585 69.9585C42.5585 70.7606 42.7165 71.5549 43.0234 72.296C43.3304 73.0371 43.7803 73.7104 44.3475 74.2776L62.5975 92.5276C63.1631 93.0978 63.8359 93.5504 64.5772 93.8592C65.3185 94.1681 66.1136 94.3271 66.9167 94.3271C67.7198 94.3271 68.5149 94.1681 69.2562 93.8592C69.9975 93.5504 70.6703 93.0978 71.2359 92.5276L101.653 62.111C102.798 60.9655 103.442 59.4118 103.442 57.7918C103.442 56.1718 102.798 54.6182 101.653 53.4726C100.507 52.3271 98.9534 51.6836 97.3334 51.6836C95.7134 51.6836 94.1597 52.3271 93.0142 53.4726Z" fill="url(#paint1_linear_536_856)"/>
<defs>
<linearGradient id="paint0_linear_536_856" x1="136.936" y1="-3.4065" x2="-17.8241" y2="181.527" gradientUnits="userSpaceOnUse">
<stop stop-color="#A0D39F"/>
<stop offset="1" stop-color="#08B89D"/>
</linearGradient>
<linearGradient id="paint1_linear_536_856" x1="132.434" y1="-7.17818" x2="-22.3258" y2="177.755" gradientUnits="userSpaceOnUse">
<stop stop-color="#A0D39F"/>
<stop offset="1" stop-color="#08B89D"/>
</linearGradient>
</defs>
</svg>
