<svg width="50" height="51" viewBox="0 0 50 51" fill="none" xmlns="http://www.w3.org/2000/svg">
<g clip-path="url(#clip0_233_3227)">
<path d="M8.3332 50.318C8.19893 50.318 8.06348 50.2928 7.93418 50.2386C7.5459 50.0784 7.2918 49.6974 7.2918 49.2762V43.0262C7.2918 42.4502 7.7583 41.9848 8.3332 41.9848C8.9084 41.9848 9.375 42.4502 9.375 43.0262V46.7619L13.847 42.29C13.9435 42.1931 14.0583 42.1162 14.1846 42.0639C14.311 42.0115 14.4464 41.9846 14.5832 41.9848H45.8332C46.9822 41.9848 47.9168 41.0502 47.9168 39.9012V10.7348C47.9168 9.58577 46.9822 8.6512 45.8332 8.6512H40.625C40.049 8.6512 39.5832 8.18469 39.5832 7.60979C39.5832 7.03459 40.049 6.56799 40.625 6.56799H45.8332C48.1312 6.56799 50 8.43684 50 10.7348V39.9012C50 42.1991 48.1312 44.068 45.8332 44.068H15.0146L9.06982 50.0128C8.87436 50.208 8.60946 50.3178 8.3332 50.318ZM4.1668 44.068C1.86885 44.068 0 42.1991 0 39.9012V10.7348C0 8.43684 1.86885 6.56799 4.1668 6.56799H9.375C9.9499 6.56799 10.4168 7.0345 10.4168 7.60979C10.4168 8.18469 9.9499 8.6512 9.375 8.6512H4.1668C3.01777 8.6512 2.0832 9.58577 2.0832 10.7348V39.9012C2.0832 41.0502 3.01777 41.9848 4.1668 41.9848C4.7417 41.9848 5.2082 42.4502 5.2082 43.0262C5.2082 43.6022 4.7417 44.068 4.1668 44.068Z" fill="#001645"/>
<path d="M39.5832 26.3598H38.5418C37.9658 26.3598 37.5 25.8929 37.5 25.318C37.5 24.7431 37.9658 24.2762 38.5418 24.2762H39.5832C40.7322 24.2762 41.6668 23.342 41.6668 22.193V20.1098C41.6668 18.9608 40.7322 18.0262 39.5832 18.0262H38.5418C37.9658 18.0262 37.5 17.5597 37.5 16.9848V14.9012C37.5 8.00881 31.8928 2.4012 25 2.4012C18.1072 2.4012 12.5 8.00881 12.5 14.9012V16.9848C12.5 17.5597 12.0335 18.0262 11.4582 18.0262C10.8833 18.0262 10.4168 17.5597 10.4168 16.9848V14.9012C10.4168 6.85979 16.9582 0.317993 25 0.317993C33.0418 0.317993 39.5832 6.85979 39.5832 14.9012V15.943C41.8812 15.943 43.75 17.8118 43.75 20.1098V22.193C43.75 24.4909 41.8812 26.3598 39.5832 26.3598Z" fill="#001645"/>
<path d="M11.4582 26.3597H10.4168C8.11885 26.3597 6.25 24.4909 6.25 22.1929V20.1097C6.25 17.8118 8.11885 15.9429 10.4168 15.9429H11.4582C12.0334 15.9429 12.5 16.4094 12.5 16.9847V25.3179C12.5 25.8928 12.0335 26.3597 11.4582 26.3597ZM10.4168 18.0261C9.26777 18.0261 8.3332 18.9607 8.3332 20.1097V22.1929C8.3332 23.342 9.26777 24.2761 10.4168 24.2761V18.0261ZM25 39.9011C23.2769 39.9011 21.875 38.4993 21.875 36.7761C21.875 35.0535 23.2769 33.6511 25 33.6511C26.3584 33.6511 27.5166 34.522 27.9469 35.7347H28.125C33.2947 35.7347 37.5 31.5294 37.5 26.3597V21.1511C37.5 20.5762 37.9658 20.1097 38.5418 20.1097C39.1178 20.1097 39.5832 20.5762 39.5832 21.1511V26.3597C39.5832 32.6772 34.4426 37.8179 28.125 37.8179H27.0832C26.9464 37.818 26.8109 37.7912 26.6845 37.7388C26.558 37.6865 26.4432 37.6098 26.3465 37.513C26.2497 37.4162 26.173 37.3014 26.1207 37.1749C26.0685 37.0485 26.0416 36.913 26.0418 36.7761C26.0418 36.2012 25.574 35.7347 25 35.7347C24.426 35.7347 23.9582 36.2012 23.9582 36.7761C23.9582 37.3513 24.426 37.8179 25 37.8179C25.5749 37.8179 26.0418 38.2838 26.0418 38.8597C26.0418 39.4357 25.5749 39.9011 25 39.9011ZM34.375 15.9429C33.799 15.9429 33.3332 15.4764 33.3332 14.9011C33.3332 10.3064 29.5948 6.56794 25 6.56794C20.4052 6.56794 16.6668 10.3063 16.6668 14.9011C16.6668 15.4763 16.1999 15.9429 15.625 15.9429C15.0501 15.9429 14.5832 15.4764 14.5832 14.9011C14.5832 9.1574 19.2562 4.48474 25 4.48474C30.7437 4.48474 35.4168 9.1574 35.4168 14.9011C35.4168 15.4763 34.951 15.9429 34.375 15.9429ZM19.7918 27.4011H21.875V29.4847H19.7918V27.4011ZM23.9582 27.4011H26.0418V29.4847H23.9582V27.4011Z" fill="#001645"/>
<path d="M28.125 27.4012H30.2082V29.4848H28.125V27.4012Z" fill="#001645"/>
</g>
<defs>
<clipPath id="clip0_233_3227">
<rect width="50" height="50" fill="white" transform="translate(0 0.317993)"/>
</clipPath>
</defs>
</svg>
