<svg width="355" height="233" viewBox="0 0 355 233" fill="none" xmlns="http://www.w3.org/2000/svg">
<g filter="url(#filter0_d_164_213)">
<path fill-rule="evenodd" clip-rule="evenodd" d="M74 80C96.0914 80 114 62.0914 114 40C114 34.7317 112.982 29.7013 111.131 25.0949C109.22 20.34 112.309 14 117.434 14H334C337.314 14 340 16.6863 340 20V211C340 214.314 337.314 217 334 217H21C17.6863 217 15 214.314 15 211V20C15 16.6863 17.6863 14 21 14H30.5665C35.691 14 38.7798 20.34 36.8693 25.0949C35.0185 29.7013 34 34.7317 34 40C34 62.0914 51.9086 80 74 80Z" fill="#FDFDFD"/>
</g>
<defs>
<filter id="filter0_d_164_213" x="0" y="0" width="355" height="233" filterUnits="userSpaceOnUse" color-interpolation-filters="sRGB">
<feFlood flood-opacity="0" result="BackgroundImageFix"/>
<feColorMatrix in="SourceAlpha" type="matrix" values="0 0 0 0 0 0 0 0 0 0 0 0 0 0 0 0 0 0 127 0" result="hardAlpha"/>
<feOffset dy="1"/>
<feGaussianBlur stdDeviation="7.5"/>
<feComposite in2="hardAlpha" operator="out"/>
<feColorMatrix type="matrix" values="0 0 0 0 0.491667 0 0 0 0 0.491667 0 0 0 0 0.491667 0 0 0 0.12 0"/>
<feBlend mode="normal" in2="BackgroundImageFix" result="effect1_dropShadow_164_213"/>
<feBlend mode="normal" in="SourceGraphic" in2="effect1_dropShadow_164_213" result="shape"/>
</filter>
</defs>
</svg>
