<svg width="80" height="80" viewBox="0 0 80 80" fill="none" xmlns="http://www.w3.org/2000/svg">
<circle cx="40" cy="40" r="40" fill="url(#paint0_linear_536_846)"/>
<path d="M38.9011 59.7803C38.9011 60.6299 39.5899 61.3187 40.4396 61.3187C41.2892 61.3187 41.978 60.6299 41.978 59.7803L38.9011 59.7803ZM41.5274 19.132C40.9266 18.5312 39.9525 18.5312 39.3517 19.132L29.561 28.9227C28.9602 29.5235 28.9602 30.4976 29.561 31.0984C30.1618 31.6992 31.1359 31.6992 31.7367 31.0984L40.4396 22.3955L49.1424 31.0984C49.7432 31.6992 50.7173 31.6992 51.3181 31.0984C51.9189 30.4976 51.9189 29.5235 51.3181 28.9227L41.5274 19.132ZM41.978 59.7803L41.978 20.2198L38.9011 20.2198L38.9011 59.7803L41.978 59.7803Z" fill="#F1F6FF"/>
<defs>
<linearGradient id="paint0_linear_536_846" x1="1.85696e-07" y1="36.1319" x2="107.383" y2="36.3663" gradientUnits="userSpaceOnUse">
<stop stop-color="#105BFB"/>
<stop offset="1" stop-color="#5061FF"/>
</linearGradient>
</defs>
</svg>
